<?xml version="1.0" encoding="UTF-8"?>
<svg width="18px" height="22px" viewBox="0 0 18 22" version="1.1" xmlns="http://www.w3.org/2000/svg" xmlns:xlink="http://www.w3.org/1999/xlink">
    <!-- Generator: Sketch 64 (93537) - https://sketch.com -->
    <title>Mask</title>
    <desc>Created with Sketch.</desc>
    <g id="Page-1" stroke="none" stroke-width="1" fill="none" fill-rule="evenodd">
        <g id="Legal" transform="translate(-503.000000, -607.000000)" fill="#2BB5FF" fill-rule="nonzero">
            <path d="M518,607 L506,607 C504.3,607 503,608.3 503,610 L503,626 C503,627.7 504.3,629 506,629 L518,629 C519.7,629 521,627.7 521,626 L521,610 C521,608.3 519.7,607 518,607 Z M519,626 C519,626.6 518.6,627 518,627 L506,627 C505.4,627 505,626.6 505,626 L505,610 C505,609.4 505.4,609 506,609 L518,609 C518.6,609 519,609.4 519,610 L519,626 Z M512.7,623.3 C512.9,623.5 513,623.8 513,624 C513,624.3 512.9,624.5 512.7,624.7 C512.5,624.9 512.3,625 512,625 C511.9,625 511.7,625 511.6,624.9 C511.5,624.9 511.4,624.8 511.3,624.7 C511.1,624.5 511,624.3 511,624 C511,623.9 511,623.7 511.1,623.6 C511.2,623.5 511.2,623.4 511.3,623.3 C511.7,622.9 512.3,622.9 512.7,623.3 Z" id="Mask"></path>
        </g>
    </g>
</svg>