<?xml version="1.0" encoding="UTF-8"?>
<svg width="6px" height="6px" viewBox="0 0 6 6" version="1.1" xmlns="http://www.w3.org/2000/svg" xmlns:xlink="http://www.w3.org/1999/xlink">
  <g id="check-mark" fill="#2476FF" fill-rule="nonzero">
      <path d="M3,0 C1.34314575,0 0,1.34314575 0,3 C0,4.65685425 1.34314575,6 3,6 C4.65685425,6 6,4.65685425 6,3 C6,2.20435053 5.68392948,1.44128879 5.12132034,0.878679656 C4.55871121,0.316070521 3.79564947,0 3,0 Z M4.5696,2.214 L2.6226,4.161 L2.6226,4.161 C2.5648154,4.21835336 2.4715846,4.21835336 2.4138,4.161 L1.4244,3.1722 C1.36704664,3.1144154 1.36704664,3.0211846 1.4244,2.9634 L1.4802,2.9076 C1.5379846,2.85024664 1.6312154,2.85024664 1.689,2.9076 L2.52,3.7362 L4.305,1.9488 C4.3627846,1.89144664 4.4560154,1.89144664 4.5138,1.9488 L4.5696,2.0046 C4.62735151,2.06245431 4.62735151,2.15614569 4.5696,2.214 L4.5696,2.214 Z" id="Shape-Copy-24"></path>
  </g>
</svg>
