<?xml version="1.0" encoding="UTF-8"?>
<svg width="26px" height="21px" viewBox="0 0 26 21" version="1.1" xmlns="http://www.w3.org/2000/svg" xmlns:xlink="http://www.w3.org/1999/xlink">
    <!-- Generator: Sketch 64 (93537) - https://sketch.com -->
    <title>Mask Copy 18</title>
    <desc>Created with Sketch.</desc>
    <g id="Page-1" stroke="none" stroke-width="1" fill="none" fill-rule="evenodd">
        <g id="Legal" transform="translate(-849.000000, -940.000000)" fill="#2BB5FF" fill-rule="nonzero">
            <path d="M868.26921,957.552857 L868.26921,959.617899 C868.26921,960.237411 867.854555,960.65042 867.232573,960.65042 C866.610591,960.65042 866.195936,960.237411 866.195936,959.617899 L866.195936,957.552857 C866.195936,955.797571 864.848309,954.455294 863.086026,954.455294 L854.792932,954.455294 C853.03065,954.455294 851.683022,955.797571 851.683022,957.552857 L851.683022,959.617899 C851.683022,960.237411 851.268367,960.65042 850.646385,960.65042 C850.024403,960.65042 849.609748,960.237411 849.609748,959.617899 L849.609748,957.552857 C849.609748,954.661798 851.890349,952.390252 854.792932,952.390252 L863.086026,952.390252 C865.988609,952.390252 868.26921,954.661798 868.26921,957.552857 Z M853.756295,945.162605 C853.756295,942.271546 856.036896,940 858.939479,940 C861.842062,940 864.122663,942.271546 864.122663,945.162605 C864.122663,948.053664 861.842062,950.32521 858.939479,950.32521 C856.036896,950.32521 853.756295,948.053664 853.756295,945.162605 Z M855.829569,945.162605 C855.829569,946.917891 857.177197,948.260168 858.939479,948.260168 C860.701762,948.260168 862.049389,946.917891 862.049389,945.162605 C862.049389,943.407319 860.701762,942.065042 858.939479,942.065042 C857.177197,942.065042 855.829569,943.407319 855.829569,945.162605 Z M870.549811,952.596756 C870.031493,952.493504 869.40951,952.80326 869.305847,953.319521 C869.202183,953.835781 869.513174,954.455294 870.031493,954.558546 C871.37912,954.868302 872.312093,956.107327 872.312093,957.552857 L872.312093,959.617899 C872.312093,960.237411 872.726748,960.65042 873.34873,960.65042 C873.970712,960.65042 874.385367,960.237411 874.385367,959.617899 L874.385367,957.552857 C874.489031,955.178058 872.934075,953.113016 870.549811,952.596756 Z M866.403264,940.206504 C865.884945,940 865.366627,940.309756 865.1593,940.929269 C865.055636,941.445529 865.366627,942.065042 865.884945,942.168294 C867.543564,942.581302 868.580201,944.233336 868.165546,945.988622 C867.854555,947.124395 867.025246,947.950412 865.884945,948.260168 C865.366627,948.36342 864.951972,948.982933 865.1593,949.499193 C865.262963,950.015454 865.677618,950.32521 866.195936,950.32521 C866.2996,950.32521 866.403264,950.32521 866.403264,950.32521 C868.26921,949.808949 869.720501,948.466672 870.135156,946.608134 C870.860802,943.717076 869.202183,940.826017 866.403264,940.206504 Z" id="Mask-Copy-18"></path>
        </g>
    </g>
</svg>