<?xml version="1.0" encoding="UTF-8"?>
<svg width="52px" height="14px" viewBox="0 0 52 14" version="1.1" xmlns="http://www.w3.org/2000/svg" xmlns:xlink="http://www.w3.org/1999/xlink">
    <!-- Generator: Sketch 64 (93537) - https://sketch.com -->
    <title>Group 40 Copy</title>
    <desc>Created with Sketch.</desc>
    <g id="Page-1" stroke="none" stroke-width="1" fill="none" fill-rule="evenodd">
        <g id="Company-Copy" transform="translate(-63.000000, -2614.000000)" fill="#000000" fill-rule="nonzero">
            <g id="Group-40" transform="translate(-190.500000, 2441.693897)">
                <g id="Group-40-Copy" transform="translate(254.000000, 173.033663)">
                    <path d="M31.3560612,3.63512877 C30.5279168,3.63512877 29.8774271,3.81121325 29.2265958,4.16270498 C29.2265958,2.28638933 29.2265958,0.586158164 29.2860418,-6.13709993e-15 L25.3219497,0.703322072 L25.3219497,1.05515242 L25.7360219,1.11373437 C26.2679612,1.23089828 26.4462992,1.52380805 26.563483,2.22780737 C26.6827167,3.63512877 26.622929,11.14073 26.563483,12.3723055 C27.6283865,12.606972 28.752736,12.7830564 29.8770855,12.7830564 C33.0126916,12.7830564 34.9057395,10.8478202 34.9057395,7.79851099 C34.9057395,5.39461913 33.3676594,3.63512877 31.3560612,3.63512877 L31.3560612,3.63512877 Z M29.9952942,12.1376391 C29.7585351,12.1376391 29.46233,12.1376391 29.2853586,12.0793957 C29.2259125,11.2585711 29.1671498,7.79851099 29.2259125,4.74954039 C29.5808804,4.63203786 29.8172978,4.5734559 30.1135029,4.5734559 C31.4158488,4.5734559 32.1257845,6.0979412 32.1257845,7.97391823 C32.1254429,10.320244 31.2378525,12.1376391 29.9952942,12.1376391 L29.9952942,12.1376391 Z M10.4126175,0.234327816 L5.79342233e-13,0.234327816 L5.79342233e-13,0.761904026 L0.591726934,0.82048598 C1.36042532,0.937649888 1.65663043,1.40664414 1.77449751,2.52071714 C1.95249389,4.63169923 1.89304789,8.44358973 1.77449751,10.2606462 C1.65628878,11.3750578 1.36076696,11.9029726 0.591726934,11.9608773 L5.79342233e-13,12.0787185 L5.79342233e-13,12.5477128 L6.68528443,12.5477128 L6.68528443,12.0787185 L5.97534877,11.9608773 C5.20630874,11.902634 4.91044528,11.3750578 4.79223655,10.2606462 C4.73279054,9.4980649 4.67368617,8.26648937 4.67368617,6.7423427 L6.0935575,6.80092465 C6.9811479,6.80092465 7.39487845,7.50458535 7.57253319,8.50115581 L8.10515576,8.50115581 L8.10515576,4.33912809 L7.57253319,4.33912809 C7.39453681,5.33603718 6.9811479,6.03935925 6.0935575,6.03935925 L4.67402782,6.09827983 C4.67402782,4.10446165 4.73313218,2.228146 4.79257819,1.114073 L6.86293917,1.114073 C8.46080688,1.114073 9.28895127,2.11064346 9.88033656,3.87013383 L10.4720635,3.69404934 L10.4126175,0.234327816 L10.4126175,0.234327816 Z" id="Shape"></path>
                    <path d="M13.5390168,3.55668109 C16.4807992,3.55668109 17.9515205,5.5420951 17.9515205,8.16953157 C17.9515205,10.680298 16.3041359,12.7830564 13.3623536,12.7830564 C10.4209109,12.7830564 8.95018961,10.7973052 8.95018961,8.16953157 C8.95018961,5.65876515 10.5972344,3.55668109 13.5390168,3.55668109 Z M13.3623536,4.14070573 C12.0679557,4.14070573 11.714969,5.89244244 11.714969,8.16953157 C11.714969,10.3882857 12.3033935,12.1983574 13.4802423,12.1983574 C14.8323954,12.1983574 15.1860616,10.4466207 15.1860616,8.16953157 C15.1860616,5.95077746 14.5983166,4.14070573 13.3623536,4.14070573 Z M35.3063038,8.22820379 C35.3063038,5.83410742 36.8357996,3.55668109 39.8363565,3.55668109 C42.306584,3.55668109 43.4837726,5.36709002 43.4837726,7.7608492 L38.0123088,7.7608492 C37.9531945,9.92126828 39.0121546,11.4979999 41.1304146,11.4979999 C42.0718257,11.4979999 42.5423614,11.264997 43.1311256,10.8559775 L43.3658838,11.1476526 C42.7774594,11.9650173 41.4834013,12.7830564 39.8363565,12.7830564 C37.1887864,12.7827192 35.3063038,10.9143125 35.3063038,8.22820379 L35.3063038,8.22820379 Z M38.0123088,7.11882674 L40.7774279,7.06015452 C40.7774279,5.89244244 40.6007647,4.14070573 39.6009188,4.14070573 C38.6010729,4.14070573 38.0707435,5.77543519 38.0123088,7.11882674 L38.0123088,7.11882674 Z M50.4857514,4.02403568 C49.779778,3.73168616 48.8387066,3.55668109 47.7797465,3.55668109 C45.6033915,3.55668109 44.2495397,4.84106322 44.2495397,6.35945983 C44.2495397,7.87785645 45.2487061,8.51987891 46.6623516,8.9872335 C48.1327332,9.51224872 48.5448341,9.92126828 48.5448341,10.621963 C48.5448341,11.3226577 48.0151842,11.9646801 47.0737731,11.9646801 C45.9563782,11.9646801 45.1321763,11.3226577 44.4853171,9.57058374 L44.0732162,9.68792818 L44.1323304,12.2570296 C44.8383038,12.5487048 46.1323619,12.7827192 47.2504363,12.7827192 C49.5450197,12.7827192 51.0160808,11.6143328 51.0160808,9.80459823 C51.0160808,8.57821394 50.3685421,7.87785645 48.8390463,7.29349461 C47.1913221,6.65147215 46.6035771,6.24278978 46.6035771,5.48342288 C46.6035771,4.72439317 47.1339065,4.19870355 47.8398799,4.19870355 C48.8981606,4.19870355 49.604134,4.84106322 50.1344634,6.41779486 L50.5458848,6.30112481 L50.4857514,4.02403568 L50.4857514,4.02403568 Z M25.5993393,3.79035838 C24.5994934,3.20700814 22.8342201,3.49834607 21.8931487,5.60076732 L21.9515835,3.55701829 L18.010295,4.316048 L18.010295,4.66639534 L18.4220562,4.72473036 C18.9520458,4.78340258 19.1868041,5.07507771 19.2459183,5.83444461 C19.3634673,7.23583398 19.3046928,9.68860258 19.2459183,10.9146497 C19.1868041,11.61467 18.9520458,11.9650173 18.4220562,12.0236895 L18.010295,12.0823618 L18.010295,12.5493791 L23.4814191,12.5493791 L23.4814191,12.0823618 L22.7754456,12.0236895 C22.187361,11.9650173 22.0106977,11.61467 21.9515835,10.9146497 C21.8340345,9.80493543 21.8340345,7.58618132 21.8931487,6.18479195 C22.1870212,5.77577239 23.4814191,5.42576224 24.6579282,6.18479195 L25.5993393,3.79035838 Z" id="Shape"></path>
                </g>
            </g>
        </g>
    </g>
</svg>