<svg xmlns="http://www.w3.org/2000/svg" viewBox="0 0 1200 318.49"><title>Artboard 1</title><path d="M513.88,290.43v-97.9a63.22,63.22,0,0,1,11.32-.5c22.37,1.38,33.1,14.34,33.1,47.53,0,36.95-11.58,50.34-33.64,51.58A45.16,45.16,0,0,1,513.88,290.43Zm72.53-52.16c0-38.7-17.8-68-66.14-68-16.58,0-33.61.89-33.61.89v141s8.79,1.05,28.88,1C569,313.07,586.41,285.44,586.41,238.27Z" fill="#fff"/><path d="M120.45,313.68c-26.13,0-47.36-13.25-47.36-38.47,0-17.24,11.43-30.31,25.59-35.39-13.61-5.45-22-17.24-22-31.22,0-20.5,16.88-39.38,45.55-39.38,26.68,0,43.19,16.12,43.19,37.57,0,15.06-8.71,26.68-22,32.12,16.15,4.36,26,17.79,26,33.76,0,23.77-19.6,41-48.82,41Zm.55-62.07c-10.53,0-21,6.9-21,21.06,0,11.25,8.89,19.6,21.23,19.6,11.62,0,20.69-8.53,20.69-20.15,0-13.43-9.8-20.51-20.69-20.51Zm.18-61c-12.16,0-18.51,8.9-18.51,19.25,0,12.15,9.07,18.51,18.51,18.51,9.26,0,18.33-6.17,18.33-19.24,0-10.42-6.89-18.52-18.15-18.52Z" fill="#fff"/><rect x="319.71" y="171.04" width="27.23" height="141.56" fill="#fff"/><path d="M271.76,238.26s20.42-6.81,20.42-31.78c0-22.64-14.54-36.41-53.38-36.09-18.49.15-35,1-35,1V311.86s12.66,1.85,35.19,1.85c32.46,0,57.83-10.74,57.83-43.47C296.84,243.35,271.76,238.26,271.76,238.26ZM231,192.81a68.13,68.13,0,0,1,13.08-.47c14.6.85,20.55,6.16,20.78,17.22.23,11.48-6,18.7-22.91,19.77a65,65,0,0,1-11,0Zm12.16,98.42c-9.78.09-12.16-.77-12.16-.77V250s5.67-.33,12.12-.2c17.47.37,25.83,6.86,25.83,20.41C269,282.94,261.22,291.07,243.2,291.23Z" fill="#fff"/><rect x="605.91" y="171.04" width="27.23" height="141.56" fill="#fff"/><path d="M401.9,256.32v56.27H374.73V171.4s16.72-1,36.46-1c32,0,54.13,11.3,54.13,39.67,0,34.76-32,41.62-32,41.62l41.31,60.79H442.34l-36.15-56.17Zm0-64v43.42a109.85,109.85,0,0,0,13.64-.06c13.43-1.17,21.91-7.76,21.91-22.82,0-13.47-7-20.75-23.82-21.06A99.58,99.58,0,0,0,401.9,192.34Z" fill="#fff"/><polygon points="660.71 171.4 660.71 171.04 697.55 171.04 731.67 171.04 731.67 192.26 687.57 192.26 687.57 229.29 726.95 229.29 727.32 229.29 727.32 250.5 687.57 250.5 687.57 291.24 733.12 291.24 733.12 312.59 699.91 312.59 660.71 312.59 660.71 312.23 660.71 171.4" fill="#fff"/><path d="M823.42,274.83c-.42,21-15.62,39.32-44.39,39.32a93.28,93.28,0,0,1-26.89-3.73V286.47s9.23,5,24.39,5c13.07,0,19.76-6.45,19.76-15.38,0-9.14-3.89-13-19-25.08-16-12.84-24.42-22.66-24.21-41.51.23-20.77,15.21-39.37,45.55-39.37,12.86,0,19.06,2.36,19.06,2.36L817.58,195s-6.06-2.91-17.57-2.91c-11.82,0-20.11,5.95-20.11,16.79,0,13,11.22,19.59,22.87,28.8C816.73,248.67,823.74,258.55,823.42,274.83Z" fill="#fff"/><polygon points="50.65 171.09 50.42 171.09 0 171.09 0 192.39 23.2 192.39 23.2 312.97 50.42 312.97 50.65 171.09" fill="#fff"/><path d="M1194.85,125.06c-14.1,17.89-37.4,21.45-37.4,21.45,43.32-21.4,42.82-54.25,42.49-65-7,12.34-20,34.35-41.19,39.12-17.75,4-46.46,8.87-64.59,24-9,7.54-16.28,16-19.29,25.37,6.82,8.91,10.89,15.64,15.77,33.5,9.14,6.28,29.91-2.64,30.64-3.07-14.86-2.68-18-10.27-18-10.27,9,4.42,35.22,13.39,57.93-6.05-6.13,1-27,1.63-34.18-5.51,38,9.36,54.24-22.14,54.24-22.14-5.48,2.74-16.87,8.21-28.67,5.27C1184.67,155.22,1192.41,138.07,1194.85,125.06Zm-75.33,31.5c-13,5.17-27.39,16.49-27.39,16.49s6.81-13,20.51-18.55c21.82-8.77,31.49-3.53,31.49-3.53A82.43,82.43,0,0,0,1119.52,156.56Z" fill="#fff"/><path d="M1030.9,291.89c-1.64.14-3.45,1.37-8.33,1.31-4.19-.05-7.73-2.29-8.71-2.8-1.67-.87.28,7.93,7.39,8.32C1027.21,299.05,1032.78,291.73,1030.9,291.89Z" fill="#fff"/><path d="M988.58,284.43c-1.75-.33-8.47-1-13.8-5.12-6.19-4.76-7.23-8.1-9.15-9.91-2.2-2.07-4.78,12.29,3.71,18.41C978.6,294.49,991.58,285,988.58,284.43Z" fill="#fff"/><path d="M949.92,249c-1.43-1-7.19-4.44-10.31-10.48-3.64-7-3.23-10.56-4.22-13-1.13-2.85-9.24,9.53-4.1,18.76C936.91,254.3,952.39,250.76,949.92,249Z" fill="#fff"/><path d="M998.53,138.16A84.53,84.53,0,0,0,960,146.93l.7,8.83c.56,5.32,1.69,15.9,2.66,25.55a63.45,63.45,0,0,0,1.55,8.58c-5.82-5-6.8-13-8.54-22.32-4.68-25.12.13-60.27-28.7-74.27-6.61-3.21-11.51-5.67-18.91-8.72C841.27,56.72,796.22,16.38,784.64,0c1.35,36.31,19.1,73.85,56.72,90.5-29.16-3.54-48.42-22.21-58-33.93.93,38.55,34.44,54.33,64.46,62.61-11.41,1.23-24.11,2.36-49.64-12.37,8.93,28.41,49.64,38.28,78.57,39.49-16.9,5.57-29.24,5.26-41,.94,10.9,23.14,54.07,20.65,74.05,17.23-10.49,5.05-23.77,7.22-35.22,7.13,11.17,15.81,38.83,16.08,62.08,11.17,8.12-1.72,12.52-.83,17.33,2.57h0c-19.6,10.48-18.54,23.42-16,29.81,3.91,9.72,13.88.93,21.19,14.26,5.51,10-5.57,17.55,1.52,26.11,7.32,8.84,15.9.71,26.3,7.76,9,6.12.58,13.57,12.56,19.25,9.59,4.54,17.06-5.51,27.31-.43,10.78,8.1,22,5.42,26.56,1.24,2.78-2.62,5.54-4.74,8.59-8.36a80.17,80.17,0,0,1-45.2,29.31c-1.53.4-3,.68-3.78.81a80.08,80.08,0,0,1-88.31-110.25l-9.69,3.09a88.07,88.07,0,1,0,83.4-59.78Zm-87.12-8.57C899.26,117.23,865,101.11,865,101.11c16.12,3.09,31.8,5.3,52.34,22.3C936.79,139.49,940.73,170,940.73,170,932.34,151.87,923.55,142,911.41,129.59Zm45.86,87.5c-.51-2.15.3-5-1.87-11.2-1.86-5.33-6.3-8.88-7.39-9.91-1.86-1.76,10.82-2.4,15,6.24C966.11,208.61,957.87,219.56,957.27,217.09Zm26.47,38.26c-1.25-2.2-1.26-5.58-5.62-11.72-3.75-5.29-9.76-7.81-11.29-8.6-2.6-1.37,11.14-6,18.49,2.18C990.76,243.28,985.18,257.88,983.74,255.35Zm35.36,18.48c-1.05-1.07-4.63-5.47-10-7.31-6.27-2.15-9.15-1.34-11.32-1.85-2.5-.59,8.57-8.75,15-5.68C1021.53,263.13,1020.88,275.67,1019.1,273.83Zm36,.74a14.1,14.1,0,0,0-7.83-4.28c-5-1.18-7.14.48-11,2.83-1.71,1,3.92-9.57,11.28-8.25C1054.41,266.1,1056.76,275.91,1055.06,274.57Z" fill="#fff"/><path d="M852.7,317.45a13.36,13.36,0,0,1-4.54-2.95,14.07,14.07,0,0,1-3.09-4.54,13,13,0,0,1-1.15-5.45,13.16,13.16,0,0,1,1.15-5.5,13.46,13.46,0,0,1,3.13-4.5,15,15,0,0,1,4.54-2.92,14.53,14.53,0,0,1,5.38-1,13.93,13.93,0,0,1,13,8.41,13.92,13.92,0,0,1,1.1,5.5,13.4,13.4,0,0,1-1.92,7.15,14.41,14.41,0,0,1-17.63,5.79Zm-4.43-7a10.62,10.62,0,0,0,4.14,4.21,11.57,11.57,0,0,0,11.43,0,10.8,10.8,0,0,0,4.13-4.24,12,12,0,0,0,1.48-5.9,12.48,12.48,0,0,0-.85-4.54,12.21,12.21,0,0,0-2.4-3.73,10.62,10.62,0,0,0-3.65-2.47,11.3,11.3,0,0,0-4.43-.88,11.78,11.78,0,0,0-4.39.84,11.32,11.32,0,0,0-3.68,2.48,10.88,10.88,0,0,0-2.44,3.72,14.24,14.24,0,0,0-.63,2.18,13.22,13.22,0,0,0-.22,2.4A12.11,12.11,0,0,0,848.27,310.44Zm6.9,2.11h-2.43V296.5h6.2a6.89,6.89,0,0,1,4.2,1.07,4.17,4.17,0,0,1,1.4,3.47,4.25,4.25,0,0,1-1.1,3.13,5.65,5.65,0,0,1-3,1.33l4.54,7.05h-2.77l-4.24-7h-2.81Zm3-9A6.78,6.78,0,0,0,861,303c.69-.32,1-1,1-2.14,0-1.57-1.18-2.36-3.54-2.36h-3.32v5Z" fill="#fff"/></svg>