<?xml version="1.0" encoding="UTF-8"?>
<svg width="22px" height="21px" viewBox="0 0 22 21" version="1.1" xmlns="http://www.w3.org/2000/svg" xmlns:xlink="http://www.w3.org/1999/xlink">
    <!-- Generator: Sketch 64 (93537) - https://sketch.com -->
    <title>Mask Copy 19</title>
    <desc>Created with Sketch.</desc>
    <g id="Page-1" stroke="none" stroke-width="1" fill="none" fill-rule="evenodd">
        <g id="01-copy-39" transform="translate(-973.000000, -1178.000000)" fill="#2BB5FF" fill-rule="nonzero">
            <path d="M994.039869,1187.27207 C993.73072,1182.31597 989.814821,1178.28914 984.765373,1178.08263 L984.250123,1178.08263 C984.250123,1178.08263 984.250123,1178.08263 984.250123,1178.08263 C982.704374,1178.08263 981.261674,1178.39239 979.922025,1179.11515 C976.521376,1180.76719 974.460377,1184.17451 974.460377,1187.89158 C974.460377,1189.23386 974.769526,1190.67939 975.284776,1191.91842 L973.429877,1197.39078 C973.326827,1197.80378 973.429877,1198.21679 973.635977,1198.4233 C973.945127,1198.6298 974.151227,1198.73305 974.460377,1198.73305 C974.563426,1198.73305 974.666476,1198.73305 974.769526,1198.6298 L980.231174,1196.77126 C981.467774,1197.28752 982.807424,1197.59728 984.250123,1197.59728 C987.959922,1197.59728 991.36057,1195.53224 993.00937,1192.22817 C993.73072,1190.88589 994.039869,1189.33711 994.039869,1187.78833 L994.039869,1187.27207 Z M991.97887,1187.89158 C991.97887,1187.89158 991.97887,1187.89158 991.97887,1187.89158 C991.97887,1189.13061 991.66972,1190.26638 991.154471,1191.40215 C989.814821,1194.08671 987.238572,1195.63549 984.250123,1195.63549 C983.116573,1195.63549 981.879974,1195.32573 980.849474,1194.80947 C980.643374,1194.70622 980.334224,1194.70622 980.025075,1194.70622 L976.109176,1196.0485 L977.448825,1192.12492 C977.551875,1191.81516 977.551875,1191.60866 977.345775,1191.2989 C976.830526,1190.26638 976.521376,1189.02736 976.521376,1187.89158 C976.521376,1184.89727 978.170175,1182.31597 980.849474,1180.97369 C981.879974,1180.45743 983.116573,1180.14768 984.250123,1180.14768 C984.250123,1180.14768 984.250123,1180.14768 984.250123,1180.14768 L984.662323,1180.14768 C988.578221,1180.35418 991.66972,1183.45174 991.97887,1187.37532 L991.97887,1187.89158 Z" id="Mask-Copy-19"></path>
        </g>
    </g>
</svg>