<svg width="16px" height="16px" viewBox="0 0 16 16" version="1.1" xmlns="http://www.w3.org/2000/svg" xmlns:xlink="http://www.w3.org/1999/xlink">
        <g id="play-and-track" stroke-width="1" fill-rule="nonzero">
            <path d="M7.525,15.05 C3.36905726,15.05 -2.30926389e-14,11.6809427 -2.30926389e-14,7.525 C-2.30926389e-14,3.36905726 3.36905726,9.05941988e-14 7.525,9.05941988e-14 C11.6809427,9.05941988e-14 15.05,3.36905726 15.05,7.525 C15.05,11.6809427 11.6809427,15.05 7.525,15.05 Z M1.25416667,7.525 C1.25374845,10.8665656 3.87369101,13.6214681 7.2110666,13.7887551 C10.5484422,13.9560421 13.4307408,11.4769412 13.7644792,8.15208333 L7.525,8.15208333 C7.17867144,8.15208333 6.89791667,7.87132856 6.89791667,7.525 L6.89791667,7.525 L6.89791667,1.28614792 C3.69381579,1.60817216 1.25444824,4.30475747 1.25416667,7.525 L1.25416667,7.525 Z M8.15208333,1.28614792 L8.15208333,6.89791667 L13.7644792,6.89791667 C13.4643674,3.93156833 11.1184652,1.58592826 8.15208333,1.28614792 Z" id="Shape"></path>
        </g>
</svg>
