<?xml version="1.0" encoding="UTF-8"?>
<svg width="20px" height="22px" viewBox="0 0 20 22" version="1.1" xmlns="http://www.w3.org/2000/svg" xmlns:xlink="http://www.w3.org/1999/xlink">
    <!-- Generator: Sketch 64 (93537) - https://sketch.com -->
    <title>Mask Copy 19</title>
    <desc>Created with Sketch.</desc>
    <g id="Page-1" stroke="none" stroke-width="1" fill="none" fill-rule="evenodd">
        <g id="Legal" transform="translate(-502.000000, -940.000000)" fill="#2BB5FF" fill-rule="nonzero">
            <path d="M519,949 L518,949 L518,946 C518,942.7 515.3,940 512,940 C508.7,940 506,942.7 506,946 L506,949 L505,949 C503.3,949 502,950.3 502,952 L502,959 C502,960.7 503.3,962 505,962 L519,962 C520.7,962 522,960.7 522,959 L522,952 C522,950.3 520.7,949 519,949 Z M508,946 C508,943.8 509.8,942 512,942 C514.2,942 516,943.8 516,946 L516,949 L508,949 L508,946 Z M520,959 C520,959.6 519.6,960 519,960 L505,960 C504.4,960 504,959.6 504,959 L504,952 C504,951.4 504.4,951 505,951 L519,951 C519.6,951 520,951.4 520,952 L520,959 Z" id="Mask-Copy-19"></path>
        </g>
    </g>
</svg>