<?xml version="1.0" encoding="UTF-8"?>
<svg width="23px" height="23px" viewBox="0 0 23 23" version="1.1" xmlns="http://www.w3.org/2000/svg" xmlns:xlink="http://www.w3.org/1999/xlink">
  <g id="01-copy-32" transform="translate(-184.000000, -3484.000000)" fill-rule="nonzero">
    <g id="Group-4" transform="translate(-120.000000, 3454.308016)">
      <g id="iconmonstr-quote-9-copy-3" transform="translate(304.400000, 30.000000)">
          <path d="M11,0 C4.97197885,0 0.0846153846,4.88736346 0.0846153846,10.9153846 C0.0846153846,16.9434058 4.97197885,21.8307692 11,21.8307692 C17.0280212,21.8307692 21.9153846,16.9434058 21.9153846,10.9153846 C21.9153846,4.88736346 17.0280212,0 11,0 Z M11,10.6434096 C11,13.2421808 9.29992885,14.9904615 6.90673077,15.4634615 L6.45374231,14.4965404 C7.56256346,14.0790269 8.27388269,12.8392212 8.27388269,11.8322769 L6.45192308,11.8322769 L6.45192308,7.27692308 L11,7.27692308 L11,10.6434096 L11,10.6434096 Z M16.4576923,10.6434096 C16.4576923,13.2421808 14.7576212,14.9904615 12.3644231,15.4634615 L11.9114346,14.4965404 C13.0202558,14.0790269 13.731575,12.8392212 13.731575,11.8322769 L11.9096154,11.8322769 L11.9096154,7.27692308 L16.4576923,7.27692308 L16.4576923,10.6434096 L16.4576923,10.6434096 Z" id="Shape"></path>
      </g>
    </g>
  </g>
</svg>
