<?xml version="1.0" encoding="UTF-8"?>
<svg width="22px" height="18px" viewBox="0 0 22 18" version="1.1" xmlns="http://www.w3.org/2000/svg" xmlns:xlink="http://www.w3.org/1999/xlink">
    <!-- Generator: Sketch 64 (93537) - https://sketch.com -->
    <title>Group 3</title>
    <desc>Created with Sketch.</desc>
    <g id="Symbols" stroke="none" stroke-width="1" fill="none" fill-rule="evenodd">
        <g id="review-compare" transform="translate(1.000000, 1.000000)" fill-rule="nonzero">
            <g id="Group-3" transform="translate(0.000000, 0.000000)">
                <path d="M6.45288871,6.127625 L5.73320121,6.8473125 C5.71263871,6.867875 5.71263871,6.8884375 5.71263871,6.909 L5.87713871,7.896 C5.89770121,7.9988125 5.77432621,8.0810625 5.69207621,8.0399375 L4.78732621,7.567 C4.76676371,7.5464375 4.74620121,7.5464375 4.72563871,7.567 L3.84145121,8.0399375 C3.73863871,8.0810625 3.63582621,7.9988125 3.65638871,7.896 L3.82088871,6.8884375 C3.82088871,6.867875 3.82088871,6.8473125 3.80032621,6.82675 L3.08063871,6.127625 C2.99838871,6.045375 3.03951371,5.922 3.16288871,5.9014375 L4.17045121,5.7575 C4.19101371,5.7575 4.21157621,5.7369375 4.23213871,5.716375 L4.68451371,4.811625 C4.72563871,4.7088125 4.86957621,4.7088125 4.91070121,4.811625 L5.36307621,5.716375 C5.38363871,5.7369375 5.40420121,5.7575 5.42476371,5.7575 L6.41176371,5.9014375 C6.49401371,5.922 6.53513871,6.045375 6.45288871,6.127625 Z M11.4495762,6.127625 L10.7298887,6.8473125 C10.7093262,6.867875 10.7093262,6.8884375 10.7093262,6.909 L10.8738262,7.896 C10.8943887,7.9988125 10.7710137,8.0810625 10.6887637,8.0399375 L9.78401371,7.567 C9.76345121,7.5464375 9.74288871,7.5464375 9.72232621,7.567 L8.83813871,8.0399375 C8.73532621,8.0810625 8.63251371,7.9988125 8.65307621,7.896 L8.81757621,6.8884375 C8.81757621,6.867875 8.81757621,6.8473125 8.79701371,6.82675 L8.07732621,6.127625 C7.99507621,6.045375 8.03620121,5.922 8.15957621,5.9014375 L9.16713871,5.7575 C9.18770121,5.7575 9.20826371,5.7369375 9.22882621,5.716375 L9.68120121,4.811625 C9.72232621,4.7088125 9.86626371,4.7088125 9.90738871,4.811625 L10.3597637,5.716375 C10.3803262,5.7369375 10.4008887,5.7575 10.4214512,5.7575 L11.4084512,5.9014375 C11.4907012,5.922 11.5318262,6.045375 11.4495762,6.127625 Z M16.4668262,6.127625 L15.7265762,6.82675 C15.7060137,6.8473125 15.7060137,6.867875 15.7060137,6.8884375 L15.8705137,7.8754375 C15.8910762,7.97825 15.7677012,8.0605 15.6854512,8.019375 L14.7807012,7.5464375 C14.7601387,7.525875 14.7395762,7.525875 14.7190137,7.5464375 L13.8348262,8.019375 C13.7320137,8.0605 13.6292012,7.97825 13.6497637,7.8754375 L13.8142637,6.867875 C13.8142637,6.8473125 13.8142637,6.82675 13.7937012,6.8061875 L13.0740137,6.1070625 C12.9917637,6.0248125 13.0328887,5.9014375 13.1562637,5.880875 L14.1638262,5.7369375 C14.1843887,5.7369375 14.2049512,5.716375 14.2255137,5.6958125 L14.6778887,4.7910625 C14.7190137,4.68825 14.8629512,4.68825 14.9040762,4.7910625 L15.3564512,5.6958125 C15.3770137,5.716375 15.3975762,5.7369375 15.4181387,5.7369375 L16.4051387,5.880875 C16.4873887,5.922 16.5285137,6.045375 16.4668262,6.127625 Z" id="Shape-Copy-4" fill="#2BB5FF"></path>
                <path d="M18.2595,2.80035254e-14 L1.274875,2.80035254e-14 C0.57575,2.80035254e-14 0,0.57575 0,1.274875 L0,15.2764917 C0,16.0578667 0.987,16.4074292 1.4805,15.7905542 L4.8733125,13.2628125 L18.2595,13.2628125 C18.958625,13.2628125 19.534375,12.6870625 19.534375,11.9879375 L19.534375,1.274875 C19.534375,0.57575 18.958625,2.80035254e-14 18.2595,2.80035254e-14 Z" id="Shape-Copy-5" stroke="#2BB5FF" stroke-width="1.4"></path>
            </g>
        </g>
    </g>
</svg>