<?xml version="1.0" encoding="UTF-8"?>
<svg width="26px" height="21px" viewBox="0 0 26 21" version="1.1" xmlns="http://www.w3.org/2000/svg" xmlns:xlink="http://www.w3.org/1999/xlink">
    <!-- Generator: Sketch 64 (93537) - https://sketch.com -->
    <title>Mask Copy 18</title>
    <desc>Created with Sketch.</desc>
    <g id="Page-1" stroke="none" stroke-width="1" fill="none" fill-rule="evenodd">
        <g id="01-copy-39" transform="translate(-677.000000, -1178.000000)" fill="#2BB5FF" fill-rule="nonzero">
            <path d="M696.198529,1195.63549 L696.198529,1197.70053 C696.198529,1198.32005 695.783875,1198.73305 695.161893,1198.73305 C694.539911,1198.73305 694.125256,1198.32005 694.125256,1197.70053 L694.125256,1195.63549 C694.125256,1193.8802 692.777628,1192.53793 691.015346,1192.53793 L682.722251,1192.53793 C680.959969,1192.53793 679.612341,1193.8802 679.612341,1195.63549 L679.612341,1197.70053 C679.612341,1198.32005 679.197686,1198.73305 678.575704,1198.73305 C677.953722,1198.73305 677.539068,1198.32005 677.539068,1197.70053 L677.539068,1195.63549 C677.539068,1192.74443 679.819668,1190.47289 682.722251,1190.47289 L691.015346,1190.47289 C693.917928,1190.47289 696.198529,1192.74443 696.198529,1195.63549 Z M681.685615,1183.24524 C681.685615,1180.35418 683.966216,1178.08263 686.868798,1178.08263 C689.771381,1178.08263 692.051982,1180.35418 692.051982,1183.24524 C692.051982,1186.1363 689.771381,1188.40784 686.868798,1188.40784 C683.966216,1188.40784 681.685615,1186.1363 681.685615,1183.24524 Z M683.758888,1183.24524 C683.758888,1185.00052 685.106516,1186.3428 686.868798,1186.3428 C688.631081,1186.3428 689.978709,1185.00052 689.978709,1183.24524 C689.978709,1181.48995 688.631081,1180.14768 686.868798,1180.14768 C685.106516,1180.14768 683.758888,1181.48995 683.758888,1183.24524 Z M698.47913,1190.67939 C697.960812,1190.57614 697.33883,1190.88589 697.235166,1191.40215 C697.131502,1191.91842 697.442493,1192.53793 697.960812,1192.64118 C699.30844,1192.95094 700.241413,1194.18996 700.241413,1195.63549 L700.241413,1197.70053 C700.241413,1198.32005 700.656067,1198.73305 701.27805,1198.73305 C701.900032,1198.73305 702.314686,1198.32005 702.314686,1197.70053 L702.314686,1195.63549 C702.41835,1193.26069 700.863395,1191.19565 698.47913,1190.67939 Z M694.332583,1178.28914 C693.814265,1178.08263 693.295946,1178.39239 693.088619,1179.0119 C692.984955,1179.52816 693.295946,1180.14768 693.814265,1180.25093 C695.472884,1180.66394 696.50952,1182.31597 696.094866,1184.07126 C695.783875,1185.20703 694.954565,1186.03305 693.814265,1186.3428 C693.295946,1186.44605 692.881292,1187.06557 693.088619,1187.58183 C693.192283,1188.09809 693.606937,1188.40784 694.125256,1188.40784 C694.22892,1188.40784 694.332583,1188.40784 694.332583,1188.40784 C696.198529,1187.89158 697.649821,1186.54931 698.064476,1184.69077 C698.790121,1181.79971 697.131502,1178.90865 694.332583,1178.28914 Z" id="Mask-Copy-18"></path>
        </g>
    </g>
</svg>