<?xml version="1.0" encoding="utf-8"?>
<!-- Generator: Adobe Illustrator 24.0.3, SVG Export Plug-In . SVG Version: 6.00 Build 0)  -->
<svg version="1.1" id="livetype" xmlns="http://www.w3.org/2000/svg" xmlns:xlink="http://www.w3.org/1999/xlink" x="0px" y="0px"
	 viewBox="0 0 135 40" style="enable-background:new 0 0 135 40;" xml:space="preserve">
<style type="text/css">
	.st0{fill:#FFFFFF;}
</style>
<path d="M5,0h125c2.8,0,5,2.2,5,5v30c0,2.8-2.2,5-5,5H5c-2.8,0-5-2.2-5-5V5C0,2.2,2.2,0,5,0z"/>
<g>
	<path id="_Path_" class="st0" d="M28.1,20.3c0-1.9,1-3.7,2.7-4.7c-1-1.5-2.7-2.4-4.5-2.4c-1.9-0.2-3.7,1.1-4.7,1.1
		c-1,0-2.5-1.1-4.1-1.1c-2.1,0.1-4,1.2-5,3.1c-2.2,3.8-0.6,9.3,1.5,12.4c1,1.5,2.3,3.2,3.9,3.1c1.6-0.1,2.1-1,4-1c1.9,0,2.4,1,4.1,1
		c1.7,0,2.7-1.5,3.7-3c0.8-1.1,1.3-2.2,1.7-3.5C29.4,24.4,28.1,22.4,28.1,20.3z"/>
	<path id="_Path_2" class="st0" d="M25,11.1c0.9-1.1,1.4-2.5,1.3-3.9c-1.4,0.1-2.7,0.8-3.6,1.9c-0.9,1-1.4,2.4-1.3,3.8
		C22.7,12.9,24.1,12.2,25,11.1z"/>
	<path class="st0" d="M47.8,28h-5.3l-1.3,3.8H39l5.1-14h2.3l5.1,14h-2.3L47.8,28z M43.1,26.2h4.2l-2.1-6.1h-0.1L43.1,26.2z"/>
	<path class="st0" d="M62.3,26.6c0,3.2-1.7,5.2-4.3,5.2c-1.3,0.1-2.6-0.6-3.2-1.8h0v5.1h-2.1V21.5h2v1.7h0c0.7-1.2,1.9-1.8,3.3-1.8
		C60.6,21.4,62.3,23.5,62.3,26.6z M60.2,26.6c0-2.1-1.1-3.4-2.7-3.4c-1.6,0-2.7,1.4-2.7,3.4c0,2.1,1.1,3.4,2.7,3.4
		C59.1,30.1,60.2,28.7,60.2,26.6z"/>
	<path class="st0" d="M73.6,26.6c0,3.2-1.7,5.2-4.3,5.2c-1.3,0.1-2.6-0.6-3.2-1.8h0v5.1H64V21.5h2v1.7h0c0.7-1.2,1.9-1.8,3.3-1.8
		C71.9,21.4,73.6,23.5,73.6,26.6z M71.4,26.6c0-2.1-1.1-3.4-2.7-3.4c-1.6,0-2.7,1.4-2.7,3.4c0,2.1,1.1,3.4,2.7,3.4
		C70.4,30.1,71.4,28.7,71.4,26.6L71.4,26.6z"/>
	<path class="st0" d="M81,27.8c0.2,1.4,1.5,2.3,3.3,2.3c1.8,0,3-0.9,3-2.2c0-1.1-0.8-1.7-2.6-2.2L83,25.4c-2.6-0.6-3.8-1.8-3.8-3.8
		c0-2.4,2.1-4.1,5.1-4.1c3,0,5,1.7,5.1,4.1h-2.1c-0.1-1.4-1.3-2.2-3-2.2s-2.8,0.9-2.8,2.1c0,1,0.7,1.6,2.5,2l1.5,0.4
		c2.9,0.7,4.1,1.8,4.1,3.9c0,2.6-2.1,4.3-5.4,4.3c-3.1,0-5.2-1.6-5.3-4.1L81,27.8z"/>
	<path class="st0" d="M94.1,19.1v2.4h1.9v1.7h-1.9v5.6c0,0.9,0.4,1.3,1.2,1.3c0.2,0,0.5,0,0.7,0v1.7c-0.4,0.1-0.8,0.1-1.2,0.1
		c-2.1,0-2.9-0.8-2.9-2.8v-5.9h-1.5v-1.7H92v-2.4H94.1z"/>
	<path class="st0" d="M97.2,26.6c0-3.2,1.9-5.2,4.8-5.2c3,0,4.8,2,4.8,5.2c0,3.2-1.9,5.2-4.8,5.2C99.1,31.9,97.2,29.9,97.2,26.6z
		 M104.8,26.6c0-2.2-1-3.5-2.7-3.5c-1.7,0-2.7,1.3-2.7,3.5c0,2.2,1,3.5,2.7,3.5C103.7,30.2,104.8,28.9,104.8,26.6L104.8,26.6z"/>
	<path class="st0" d="M108.6,21.5h2v1.7h0c0.3-1.1,1.3-1.9,2.5-1.8c0.2,0,0.5,0,0.7,0.1v2c-0.3-0.1-0.6-0.1-0.9-0.1
		c-1.2,0-2.1,0.9-2.2,2c0,0.1,0,0.2,0,0.3v6.1h-2.1L108.6,21.5z"/>
	<path class="st0" d="M123.5,28.8c-0.3,1.9-2.1,3.1-4.4,3.1c-3,0-4.8-2-4.8-5.2c0-3.2,1.9-5.3,4.7-5.3c2.8,0,4.6,1.9,4.6,5v0.7h-7.2
		v0.1c-0.1,1.5,1,2.8,2.4,2.9c0.1,0,0.2,0,0.3,0c1,0.1,2-0.5,2.4-1.4L123.5,28.8z M116.4,25.7h5.1c0.1-1.4-1-2.5-2.3-2.6
		c-0.1,0-0.1,0-0.2,0C117.6,23.1,116.4,24.3,116.4,25.7C116.4,25.7,116.4,25.7,116.4,25.7z"/>
	<path class="st0" d="M42.8,7.2c1.6-0.1,3.1,1.1,3.2,2.8c0,0.2,0,0.4,0,0.6c0,2.2-1.2,3.4-3.2,3.4h-2.4V7.2H42.8z M41.4,13h1.3
		c1.2,0.1,2.2-0.8,2.2-2c0-0.1,0-0.3,0-0.4c0.2-1.2-0.7-2.2-1.8-2.4c-0.1,0-0.3,0-0.4,0h-1.3V13z"/>
	<path class="st0" d="M47.1,11.4C47,10.1,48,8.9,49.3,8.8c1.3-0.1,2.5,0.8,2.6,2.2c0,0.2,0,0.3,0,0.5c0.1,1.3-0.8,2.5-2.2,2.6
		c-1.3,0.1-2.5-0.8-2.6-2.2C47.1,11.7,47.1,11.5,47.1,11.4z M50.9,11.4c0-1.1-0.5-1.7-1.4-1.7c-0.9,0-1.4,0.6-1.4,1.7
		c0,1.1,0.5,1.7,1.4,1.7C50.4,13.1,50.9,12.5,50.9,11.4L50.9,11.4z"/>
	<path class="st0" d="M58.3,13.9h-1l-1-3.7h-0.1l-1,3.7h-1l-1.4-5.1h1l0.9,3.9h0.1l1-3.9h1l1,3.9h0.1l0.9-3.9h1L58.3,13.9z"/>
	<path class="st0" d="M60.9,8.9h1v0.8h0.1c0.3-0.6,0.9-1,1.5-0.9c0.9-0.1,1.7,0.6,1.8,1.5c0,0.1,0,0.2,0,0.4v3.3h-1v-3
		c0-0.8-0.4-1.2-1.1-1.2c-0.6,0-1.2,0.5-1.2,1.1c0,0.1,0,0.1,0,0.2v3h-1L60.9,8.9z"/>
	<path class="st0" d="M66.8,6.9h1v7.1h-1V6.9z"/>
	<path class="st0" d="M69.2,11.4c-0.1-1.3,0.8-2.5,2.2-2.6c1.3-0.1,2.5,0.8,2.6,2.2c0,0.2,0,0.3,0,0.5c0.1,1.3-0.8,2.5-2.2,2.6
		c-1.3,0.1-2.5-0.8-2.6-2.2C69.2,11.7,69.2,11.5,69.2,11.4z M72.9,11.4c0-1.1-0.5-1.7-1.4-1.7c-0.9,0-1.4,0.6-1.4,1.7
		c0,1.1,0.5,1.7,1.4,1.7C72.4,13.1,72.9,12.5,72.9,11.4z"/>
	<path class="st0" d="M75,12.5c0-0.9,0.7-1.4,1.9-1.5l1.4-0.1v-0.4c0-0.5-0.4-0.8-1-0.8c-0.6,0-0.9,0.2-1.1,0.6h-1
		c0.1-0.9,0.9-1.4,2.1-1.4c1.3,0,2,0.6,2,1.7v3.5h-1v-0.7h-0.1c-0.3,0.5-0.9,0.8-1.5,0.8c-0.8,0.1-1.6-0.5-1.7-1.4
		C75,12.6,75,12.5,75,12.5z M78.3,12.1v-0.4l-1.2,0.1c-0.7,0-1,0.3-1,0.7c0,0.5,0.4,0.7,0.9,0.7C77.6,13.2,78.2,12.8,78.3,12.1
		C78.3,12.1,78.3,12.1,78.3,12.1z"/>
	<path class="st0" d="M80.6,11.4c0-1.6,0.8-2.6,2.1-2.6c0.6,0,1.3,0.3,1.6,0.9h0.1V6.9h1v7.1h-1v-0.8h-0.1C84,13.7,83.4,14,82.7,14
		C81.4,14,80.6,13,80.6,11.4z M81.6,11.4c0,1.1,0.5,1.7,1.4,1.7c0.8,0,1.4-0.7,1.4-1.7c0-1.1-0.5-1.7-1.4-1.7
		C82.2,9.7,81.6,10.3,81.6,11.4L81.6,11.4z"/>
	<path class="st0" d="M89.5,11.4c-0.1-1.3,0.8-2.5,2.2-2.6s2.5,0.8,2.6,2.2c0,0.2,0,0.3,0,0.5c0.1,1.3-0.8,2.5-2.2,2.6
		c-1.3,0.1-2.5-0.8-2.6-2.2C89.5,11.7,89.5,11.5,89.5,11.4z M93.3,11.4c0-1.1-0.5-1.7-1.4-1.7c-0.9,0-1.4,0.6-1.4,1.7
		c0,1.1,0.5,1.7,1.4,1.7C92.8,13.1,93.3,12.5,93.3,11.4z"/>
	<path class="st0" d="M95.6,8.9h1v0.8h0.1c0.3-0.6,0.9-1,1.5-0.9c0.9-0.1,1.7,0.6,1.8,1.5c0,0.1,0,0.2,0,0.4v3.3h-1v-3
		c0-0.8-0.4-1.2-1.1-1.2c-0.6,0-1.2,0.5-1.2,1.1c0,0.1,0,0.1,0,0.2v3h-1V8.9z"/>
	<path class="st0" d="M105.6,7.6v1.3h1.1v0.8h-1.1v2.6c0,0.5,0.2,0.8,0.7,0.8c0.1,0,0.3,0,0.4,0v0.8c-0.2,0-0.4,0-0.5,0.1
		c-1.1,0-1.6-0.4-1.6-1.4V9.7h-0.8V8.9h0.8V7.6H105.6z"/>
	<path class="st0" d="M108.1,6.9h1v2.8h0.1c0.3-0.6,0.9-1,1.5-0.9c0.9-0.1,1.7,0.7,1.8,1.6c0,0.1,0,0.2,0,0.3v3.3h-1v-3
		c0-0.8-0.4-1.2-1.1-1.2c-0.7-0.1-1.2,0.4-1.3,1.1c0,0.1,0,0.1,0,0.2v3h-1L108.1,6.9z"/>
	<path class="st0" d="M118.3,12.6c-0.3,1-1.2,1.6-2.2,1.5c-1.3,0-2.3-1-2.4-2.2c0-0.1,0-0.3,0-0.4c-0.2-1.3,0.7-2.5,2-2.6
		c0.1,0,0.2,0,0.3,0c1.4,0,2.3,1,2.3,2.6v0.3h-3.6v0.1c-0.1,0.7,0.5,1.4,1.2,1.5c0,0,0.1,0,0.1,0c0.5,0.1,1-0.2,1.2-0.6L118.3,12.6z
		 M114.8,10.9h2.6c0.1-0.7-0.5-1.3-1.1-1.3c0,0-0.1,0-0.1,0C115.4,9.6,114.8,10.2,114.8,10.9C114.8,10.9,114.8,10.9,114.8,10.9
		L114.8,10.9z"/>
</g>
</svg>
