<?xml version="1.0" encoding="UTF-8"?>
<svg width="13px" height="11px" viewBox="0 0 13 11" version="1.1" xmlns="http://www.w3.org/2000/svg" xmlns:xlink="http://www.w3.org/1999/xlink">
  <path d="M6.61389494,9.77662935 C6.38269043,10.0078339 6.38605362,10.3860536 6.62253004,10.62253 L6.7108033,10.7108033 C6.94677684,10.9467768 7.33321554,10.9429268 7.55854112,10.7176013 L11.8556724,6.42046993 C12.0878916,6.1882508 12.080998,5.80485565 11.8556724,5.57953007 L7.55854112,1.28239874 C7.32632199,1.05017961 6.94727971,1.05272029 6.7108033,1.2891967 L6.62253004,1.37746996 C6.3865565,1.6134435 6.38497476,1.99445047 6.61389494,2.22337065 L9.72385763,5.33333333 L0.608270844,5.33333333 C0.272332133,5.33333333 0,5.60315323 0,5.93758138 L0,6.06241862 C0,6.3961356 0.260089702,6.66666667 0.608270844,6.66666667 L9.72385763,6.66666667 L6.61389494,9.77662935 Z" id="path-1"></path>
</svg>
