<?xml version="1.0" encoding="UTF-8"?>
<svg width="20px" height="22px" viewBox="0 0 20 22" version="1.1" xmlns="http://www.w3.org/2000/svg" xmlns:xlink="http://www.w3.org/1999/xlink">
    <title>Mask Copy 2</title>
    <g id="Page-1" stroke="none" stroke-width="1" fill="none" fill-rule="evenodd">
        <path d="M19.6,7.21679909 L10.6,0.224744608 C10.2,-0.0749148695 9.7,-0.0749148695 9.4,0.224744608 L0.4,7.21679909 C0.1,7.41657208 0,7.71623156 0,8.01589103 L0,19.0034052 C0,20.7014756 1.3,22 3,22 L17,22 C18.7,22 20,20.7014756 20,19.0034052 L20,8.01589103 C20,7.71623156 19.9,7.41657208 19.6,7.21679909 Z M12,20.0022701 L8,20.0022701 L8,12.0113507 L12,12.0113507 L12,20.0022701 Z M18,19.0034052 C18,19.6027242 17.6,20.0022701 17,20.0022701 L14,20.0022701 L14,11.0124858 C14,10.4131669 13.6,10.0136209 13,10.0136209 L7,10.0136209 C6.4,10.0136209 6,10.4131669 6,11.0124858 L6,20.0022701 L3,20.0022701 C2.4,20.0022701 2,19.6027242 2,19.0034052 L2,8.5153235 L10,2.32236095 L18,8.5153235 L18,19.0034052 Z" id="Mask-Copy-2" fill="#2BB5FF" fill-rule="nonzero"></path>
    </g>
</svg>