<?xml version="1.0" encoding="UTF-8"?>
<svg width="15px" height="15px" viewBox="0 0 15 15" version="1.1" xmlns="http://www.w3.org/2000/svg" xmlns:xlink="http://www.w3.org/1999/xlink">
  <g id="e-copy-3" transform="translate(-949.000000, -914.000000)" fill-rule="nonzero">
      <path d="M963.243921,924.8068 L958.3974,924.8068 L957.171384,923.29048 L963.646718,915.283274 C963.827121,915.060362 963.792388,914.734288 963.569995,914.554403 C963.347601,914.374 963.021009,914.408214 962.841124,914.631126 L956.504721,922.466224 L950.168318,914.631126 C949.988433,914.408733 949.661841,914.374 949.439448,914.554403 C949.217054,914.734288 949.182321,915.060362 949.362724,915.283274 L955.838059,923.29048 L954.612043,924.8068 L949.765521,924.8068 C949.479364,924.8068 949.247121,925.039043 949.247121,925.3252 L949.247121,928.4356 C949.247121,928.721757 949.479364,928.954 949.765521,928.954 L953.394321,928.954 C953.594942,928.954 953.777937,928.837878 953.863473,928.656438 L955.302033,925.602026 L956.504721,924.114736 L957.707409,925.602026 L959.145969,928.656438 C959.231505,928.837878 959.4145,928.954 959.615121,928.954 L963.243921,928.954 C963.530078,928.954 963.762321,928.721757 963.762321,928.4356 L963.762321,925.3252 C963.762321,925.039043 963.530078,924.8068 963.243921,924.8068 Z M954.042321,925.8436 L953.798155,926.362 L950.283921,926.362 L950.283921,925.8436 L954.042321,925.8436 Z M950.283921,927.9172 L950.283921,927.3988 L953.309822,927.3988 L953.065656,927.9172 L950.283921,927.9172 Z M962.725521,925.8436 L962.725521,926.362 L959.211806,926.362 L958.96764,925.8436 L962.725521,925.8436 Z M959.943787,927.9172 L959.69962,927.3988 L962.725521,927.3988 L962.725521,927.9172 L959.943787,927.9172 Z" id="Shape-Copy-32"></path>
  </g>
</svg>
