<?xml version="1.0" encoding="UTF-8"?>
<svg width="15px" height="15px" viewBox="0 0 15 15" version="1.1" xmlns="http://www.w3.org/2000/svg" xmlns:xlink="http://www.w3.org/1999/xlink">
  <g id="e-copy-3" transform="translate(-542.000000, -914.000000)" fill-rule="nonzero">
      <path d="M551.92515,923.928825 L551.92515,919.638714 L556.300276,917.496768 C556.481191,917.408643 556.594197,917.223063 556.590654,917.021414 C556.58694,916.819764 556.466676,916.639368 556.282651,916.556945 L551.617232,914.483426 C551.457053,914.411889 551.271473,914.427441 551.124253,914.522304 C550.977033,914.618723 550.88839,914.782012 550.88839,914.957743 L550.88839,919.304877 C550.88839,919.312134 550.88839,919.319392 550.88839,919.327167 L550.88839,923.82826 C550.376231,923.790936 549.854741,923.770201 549.33325,923.770201 C545.726882,923.770201 542.075932,924.660778 542.075932,926.362101 C542.075932,928.063423 545.726882,928.954 549.33325,928.954 C552.939619,928.954 556.590654,928.063423 556.590654,926.362101 C556.590654,925.076 554.502535,924.25385 551.92515,923.928825 Z M551.92515,915.75553 L554.846739,917.054071 L551.92515,918.4848 L551.92515,915.75553 Z M549.33325,927.91724 C545.474431,927.91724 543.112692,926.910547 543.112692,926.362101 C543.112692,925.813655 545.474431,924.806961 549.33325,924.806961 C549.884288,924.806961 550.401113,924.829251 550.88839,924.866056 L550.88839,925.843721 L549.33325,925.843721 C549.047105,925.843721 548.814871,926.075437 548.814871,926.362101 C548.814871,926.648765 549.047105,926.88048 549.33325,926.88048 L551.40677,926.88048 C551.692916,926.88048 551.92515,926.648765 551.92515,926.362101 L551.92515,924.971806 C554.222091,925.280242 555.553809,925.950507 555.553809,926.362101 C555.553809,926.910547 553.19207,927.91724 549.33325,927.91724 Z" id="Shape-Copy-34"></path>
  </g>
</svg>
