<?xml version="1.0" encoding="UTF-8"?>
<svg width="81px" height="17px" viewBox="0 0 81 17" version="1.1" xmlns="http://www.w3.org/2000/svg" xmlns:xlink="http://www.w3.org/1999/xlink">
    <!-- Generator: Sketch 64 (93537) - https://sketch.com -->
    <title>gd-logo copy 3</title>
    <desc>Created with Sketch.</desc>
    <g id="Page-1" stroke="none" stroke-width="1" fill="none" fill-rule="evenodd">
        <g id="Company-Copy" transform="translate(-649.000000, -2614.000000)" fill-rule="nonzero">
            <g id="Group-41" transform="translate(409.500000, 2441.693897)">
                <g id="gd-logo-copy-3" transform="translate(239.500000, 172.400000)">
                    <path d="M32.3993056,3.0609809 C33.1527778,3.0609809 33.7178819,2.44878472 33.7178819,1.74240451 C33.7178819,1.03602431 33.1056858,0.423828125 32.3993056,0.423828125 C31.6458333,0.423828125 31.0807292,1.03602431 31.0807292,1.74240451 C31.0807292,2.44878472 31.6458333,3.0609809 32.3993056,3.0609809 M5.98068576,12.7619358 L5.98068576,12.5264757 C4.66210938,12.2439236 4.23828125,10.124783 4.23828125,6.87543403 C4.23828125,3.43771701 5.27430556,1.60112847 6.78125,1.22439236 L6.78125,0.988932292 C2.68424479,1.22439236 0,3.390625 0,6.87543403 C0,10.218967 2.40169271,12.5735677 5.98068576,12.7619358 M6.4516059,12.7619358 C8.61783854,12.7148437 10.171875,12.3381076 11.1608073,11.9142795 L11.1608073,7.58181424 L7.44053819,7.58181424 L7.44053819,12.2439236 C7.20507812,12.3381076 6.78125,12.4793837 6.49869792,12.5264757 L6.49869792,12.7619358 L6.4516059,12.7619358 Z M10.8782552,3.76736111 L10.8782552,1.3656684 C10.077691,1.13020833 8.8062066,0.988932292 7.48763021,0.988932292 L7.48763021,1.22439236 C8.85329861,1.88368056 9.8422309,2.63715278 10.8782552,3.76736111 M16.1525608,12.7148437 L16.1525608,12.5264757 C16.0112847,12.4793837 15.8229167,12.3381076 15.6816406,12.1968316 C15.2578125,11.6788194 15.2107205,10.6898872 15.2107205,8.24110243 C15.2107205,5.83940972 15.3049045,4.80338542 15.6816406,4.33246528 C15.7758247,4.19118924 15.9641927,4.04991319 16.1525608,4.00282118 L16.1525608,3.81445312 C13.609592,4.00282118 11.4904514,5.65104167 11.4904514,8.24110243 C11.5375434,10.8782552 13.609592,12.5264757 16.1525608,12.7148437 M16.6234809,12.7148437 C19.1664497,12.5264757 21.2384983,10.8782552 21.2384983,8.24110243 C21.2384983,5.65104167 19.1664497,4.00282118 16.6234809,3.81445312 L16.6234809,4.00282118 C16.7647569,4.04991319 16.953125,4.14409722 17.094401,4.33246528 C17.4711372,4.85047743 17.5653212,5.83940972 17.5653212,8.24110243 C17.5653212,10.6427951 17.4711372,11.6788194 17.094401,12.1968316 C17.000217,12.3381076 16.7647569,12.4793837 16.6234809,12.5264757 L16.6234809,12.7148437 L16.6234809,12.7148437 Z M21.6623264,12.5735677 L25.1942274,12.5735677 L25.1942274,0.0941840278 L21.6623264,0.423828125 L21.6623264,12.5735677 Z" id="Shape" fill="#000000"></path>
                    <path d="M30.1859809,12.5735677 L30.1859809,5.18012153 L31.8812934,5.18012153 L31.8812934,4.00282118 L30.1859809,4.00282118 L30.1859809,1.88368056 C30.1859809,0.800564236 30.9865451,0.376736111 31.6458333,0.282552083 L31.6458333,0.0941840278 C29.3383247,0.235460069 26.6069878,0.753472222 26.6069878,3.20225694 L26.6069878,4.00282118 L25.5238715,4.00282118 L25.5238715,5.18012153 L26.6069878,5.18012153 L26.6069878,12.5735677 L30.1859809,12.5735677 L30.1859809,12.5735677 Z" id="Path" fill="#000000"></path>
                    <path d="M47.562934,3.57899306 C48.5518663,3.57899306 49.3524306,2.77842882 49.3524306,1.78949653 C49.3524306,0.800564236 48.5518663,0 47.562934,0 C46.5740017,0 45.7734375,0.800564236 45.7734375,1.78949653 C45.7734375,2.77842882 46.5740017,3.57899306 47.562934,3.57899306" id="Path" fill="#ED1C24"></path>
                    <path d="M54.0145399,16.5292969 L54.0145399,16.3880208 C55.3802083,16.2467448 56.8400608,15.7287326 56.8400608,14.5985243 C56.8400608,13.9392361 56.3691406,13.703776 55.6627604,13.703776 L52.0837674,13.703776 C50.718099,13.703776 49.7291667,13.0444878 49.7291667,11.5375434 C49.7291667,10.313151 50.812283,9.65386285 51.6128472,9.27712674 L51.7070313,9.37131076 C51.5657552,9.46549479 51.4244792,9.60677083 51.4244792,9.88932292 C51.4244792,10.218967 51.6599392,10.3602431 51.9895833,10.3602431 L55.8982205,10.3602431 C57.8760851,10.3602431 59.0062934,11.1137153 59.0062934,13.0915799 C59.0062934,14.9281684 56.8871528,16.3409288 54.0145399,16.5292969 M53.4965278,16.5292969 C50.765191,16.5292969 49.4466146,16.0583767 49.4466146,15.1165365 C49.4466146,14.4101562 50.2471788,14.0334201 51.7541233,13.9392361 L51.8012153,14.0334201 C51.6128472,14.1746962 51.3302951,14.5043403 51.3302951,15.1165365 C51.3302951,16.0112847 52.2250434,16.2938368 53.4494358,16.3880208 L53.4494358,16.5292969 M54.0616319,9.46549479 L54.0616319,9.32421875 C54.391276,9.23003472 54.6267361,8.42947049 54.6267361,6.68706597 C54.6267361,4.89756944 54.344184,4.04991319 54.0616319,4.00282118 L54.0616319,3.81445313 C55.6627604,3.90863715 57.781901,4.70920139 57.781901,6.63997396 C57.781901,8.57074653 55.6627604,9.41840278 54.0616319,9.46549479 M53.6378038,9.46549479 C52.0366753,9.37131076 49.8704427,8.57074653 49.8704427,6.68706597 C49.8704427,4.80338542 52.0366753,3.90863715 53.6378038,3.86154514 L53.6378038,4.00282118 C53.3081597,4.09700521 53.0256076,4.89756944 53.0256076,6.68706597 C53.0256076,8.4765625 53.3552517,9.27712674 53.6378038,9.32421875 L53.6378038,9.46549479 M58.2999132,5.03884549 C57.687717,5.03884549 57.1697049,4.52083333 57.1697049,3.86154514 C57.1697049,3.20225694 57.687717,2.68424479 58.2999132,2.68424479 C58.9592014,2.68424479 59.4772135,3.20225694 59.4772135,3.86154514 C59.4301215,4.56792535 58.9121094,5.03884549 58.2999132,5.03884549 M38.8509115,12.5735677 L38.8509115,12.3381076 C40.4049479,12.1968316 41.2055122,10.8782552 41.2055122,6.87543403 C41.2055122,2.68424479 40.4520399,1.55403646 38.8038194,1.41276042 L38.8038194,1.13020833 C42.8066406,1.17730035 45.3967014,2.77842882 45.3967014,6.87543403 C45.4437934,10.5957031 42.9479167,12.5264757 38.8509115,12.5735677 M38.1916233,12.5735677 L34.0946181,12.5735677 L34.0946181,1.13020833 L38.1916233,1.13020833 L38.1916233,12.5735677 M49.3524306,12.5735677 L45.8205295,12.5735677 L45.8205295,4.28537326 L49.3524306,3.95572917 L49.3524306,12.5735677 M77.6076389,12.7148438 C75.9594184,12.7148438 74.735026,11.9613715 74.735026,9.93641493 L74.735026,5.22721354 L73.6519097,5.22721354 L73.6519097,4.00282118 L74.7821181,4.00282118 L74.7821181,2.11914062 L78.4082031,0.84765625 L78.3140191,4.00282118 L80.5744358,4.00282118 L80.5744358,5.22721354 L78.3140191,5.22721354 L78.3140191,9.60677083 C78.3140191,10.6427951 78.7378472,11.0195312 79.6796875,11.0195312 C80.0564236,11.0195312 80.6215278,10.8782552 80.8098958,10.7840712 L80.8098958,11.0666233 C80.2918837,11.9613715 79.2087674,12.7148438 77.6076389,12.7148438 M70.0729167,12.7148438 L70.0729167,12.5264757 C70.6380208,12.4322917 71.108941,12.1497396 71.108941,11.4904514 C71.108941,10.9253472 70.7792969,10.6427951 69.8845486,10.218967 L68.7543403,9.70095486 C67.718316,9.23003472 66.7764757,8.42947049 66.7764757,6.92252604 C66.7764757,5.36848958 68.2834201,3.95572917 70.4025608,3.81445312 L70.4025608,4.00282118 C69.9316406,4.04991319 69.4136285,4.28537326 69.4136285,4.94466146 C69.4136285,5.55685764 69.7903646,5.83940972 70.4025608,6.12196181 L71.9565972,6.82834201 C72.8984375,7.25217014 73.6990017,8.1469184 73.6990017,9.37131076 C73.7460938,11.4433594 72.6629774,12.6206597 70.0729167,12.7148438 M69.6490885,12.7148438 C68.7543403,12.7148438 67.6241319,12.5735677 66.9648438,12.3851997 L66.9648438,10.171875 C67.859592,11.1137153 68.8485243,12.1497396 69.6490885,12.5264757 L69.6490885,12.7148438 M73.2751736,6.12196181 C72.5217014,5.0859375 71.7682292,4.37955729 70.8734809,4.04991319 L70.8734809,3.81445312 C71.7211372,3.81445312 72.7100694,4.00282118 73.2751736,4.19118924 L73.2751736,6.12196181 M62.5852865,12.7148438 C59.5243056,12.7148438 58.2057292,10.5015191 58.2057292,8.24110243 C58.2057292,5.83940972 60.0894097,4.00282118 62.5381944,3.81445312 L62.5381944,4.00282118 C62.0201823,4.14409722 61.7847222,4.66210938 61.7847222,7.06380208 C61.7847222,9.04166667 62.5852865,10.124783 64.2335069,10.124783 C65.1753472,10.124783 66.0230035,9.88932292 66.5410156,9.46549479 L66.5410156,9.79513889 C66.2113715,10.8311632 65.2224392,12.7148438 62.5852865,12.7148438 M66.4468316,7.44053819 L62.2085503,7.44053819 L62.2085503,7.20507812 L63.3858507,7.01671007 C63.3858507,5.13302951 63.1503906,4.09700521 62.8207465,4.00282118 L62.8207465,3.81445312 C65.4578993,3.95572917 66.4468316,5.83940972 66.4468316,7.44053819" id="Shape" fill="#A8A9A3"></path>
                </g>
            </g>
        </g>
    </g>
</svg>