<?xml version="1.0" encoding="UTF-8"?>
<svg width="20px" height="22px" viewBox="0 0 20 22" version="1.1" xmlns="http://www.w3.org/2000/svg" xmlns:xlink="http://www.w3.org/1999/xlink">
    <!-- Generator: Sketch 64 (93537) - https://sketch.com -->
    <title>Shape</title>
    <desc>Created with Sketch.</desc>
    <g id="Page-1" stroke="none" stroke-width="1" fill="none" fill-rule="evenodd">
        <g id="01-copy-39" transform="translate(-386.000000, -1006.000000)" fill="#2BB5FF" fill-rule="nonzero" stroke="#2BB5FF" stroke-width="0.5">
            <path d="M404.994159,1008.44135 L401.306584,1008.44135 L401.306584,1007.70383 C401.306584,1007.29599 400.976915,1006.96632 400.569069,1006.96632 L396.143979,1006.96632 L391.718889,1006.96632 C391.311781,1006.96632 390.981374,1007.29599 390.981374,1007.70383 L390.981374,1008.44135 L387.293799,1008.44135 C386.886691,1008.44135 386.556284,1008.77102 386.556284,1009.17886 L386.556284,1014.34147 C386.556284,1014.62099 386.714112,1014.87617 386.96413,1015.00154 L391.256467,1017.14771 L395.406464,1021.9895 L395.406464,1026.14171 L390.981374,1026.14171 C390.574266,1026.14171 390.243859,1026.47138 390.243859,1026.87922 C390.243859,1027.28707 390.574266,1027.61674 390.981374,1027.61674 L396.143979,1027.61674 L401.306584,1027.61674 C401.71443,1027.61674 402.044099,1027.28707 402.044099,1026.87922 C402.044099,1026.47138 401.71443,1026.14171 401.306584,1026.14171 L396.881494,1026.14171 L396.881494,1021.9895 L401.030753,1017.14771 L405.323828,1015.00154 C405.573846,1014.87617 405.731674,1014.62099 405.731674,1014.34147 L405.731674,1009.17886 C405.731674,1008.77102 405.402005,1008.44135 404.994159,1008.44135 Z M388.031314,1009.91638 L390.981374,1009.91638 L390.981374,1015.36071 L388.031314,1013.88568 L388.031314,1009.91638 Z M399.831554,1016.28113 L396.143979,1020.58379 L392.456404,1016.28113 L392.456404,1008.44135 L396.143979,1008.44135 L399.831554,1008.44135 L399.831554,1016.28113 Z M404.256644,1013.88568 L401.306584,1015.36071 L401.306584,1009.91638 L404.256644,1009.91638 L404.256644,1013.88568 Z" id="Shape"></path>
        </g>
    </g>
</svg>