<svg xmlns="http://www.w3.org/2000/svg" viewBox="0 0 1200 319.48"><title>Artboard 1</title><path d="M120.6,315.38c-26.17,0-47.43-13.27-47.43-38.52,0-17.26,11.45-30.34,25.62-35.43-13.62-5.45-22-17.26-22-31.25,0-20.53,16.9-39.43,45.6-39.43,26.71,0,43.25,16.14,43.25,37.61,0,15.08-8.72,26.71-22,32.16,16.17,4.36,26,17.81,26,33.8,0,23.8-19.62,41.06-48.87,41.06Zm.54-62.14c-10.54,0-21.08,6.9-21.08,21.08,0,11.26,8.91,19.62,21.26,19.62,11.63,0,20.72-8.54,20.72-20.17,0-13.44-9.82-20.53-20.72-20.53Zm.18-61.05c-12.17,0-18.53,8.9-18.53,19.26,0,12.17,9.08,18.53,18.53,18.53,9.27,0,18.35-6.17,18.35-19.26,0-10.42-6.9-18.53-18.17-18.53Z" fill="#fff"/><polygon points="50.71 172.62 50.48 172.62 0 172.62 0 193.94 23.23 193.94 23.23 314.67 50.48 314.67 50.71 172.62" fill="#fff"/><path d="M1069.45,268.41a86.78,86.78,0,0,1-14.13,16.67c-4.57,4.19-15.85,6.89-26.68-1.25-10.29-5.09-17.79,5-27.42.43-12-5.7-3.55-13.18-12.61-19.32-10.44-7.09-19.06,1.07-26.41-7.79-7.12-8.6,4-16.16-1.52-26.23-7.35-13.38-17.36-4.56-21.29-14.32-2.58-6.41-3.78-19.32,15.9-29.84-4.87-3.47-8.57-4.14-17.47-2.65-.51,0-4.87.94-5.82,1.14a59.26,59.26,0,0,1-22.94-.36c-15.2-2.83-21-10.79-21.74-11.89,11.09-.82,18.93-4.93,23.59-7.23-14.23,1.56-31.35.22-43.45-3.74-8.1-2.66-14-7.26-17.39-11.72a59.71,59.71,0,0,0,27.67-2.74c-11.21-.27-20.34-3.16-28.91-5.88-17.62-5.59-26.14-15-30.22-22.1,8.74,2.87,20.5,3.94,25.58,3.94,9.17,0,13.54-1.25,13.54-1.25-9.32-2.25-14.09-3.71-21.26-7.29-17.09-8.55-22.85-16.83-28.93-24a41.73,41.73,0,0,1-5.95-9c13.32,6.38,29.33,12.53,46.53,14.18-26.7-17.3-52.61-41.65-54-78C805.77,34.53,833.79,61,901.46,88.87c7.41,3.06,12.33,5.52,18.95,8.74,28.88,14,32.46,46.1,37.14,71.28,1.75,9.36,2.72,17.36,8.56,22.36a64.69,64.69,0,0,1-1.56-8.6c-1-9.67-2.1-20.27-2.66-25.6a80.53,80.53,0,0,1,107.56,111.36Z" fill="#fff"/><path d="M866.08,102.37s34.3,16.15,46.46,28.54,21,22.31,29.38,40.45c0,0-3.94-30.53-23.4-46.65-20.58-17-36.29-19.25-52.44-22.34" fill="#2ab5ff"/><path d="M1182.47,119.84c-7.08,14.33-16.19,25.19-27.13,30.43,0,0,13.91-.08,24.83-9.31-5.69,9.56-8.59,21.37-38,27.38,10.82,2.7,20.28.19,25.85-1.37a59.49,59.49,0,0,1-18.59,14.59c-7.27,3.44-14.74,4.9-25.39,2,7,6.68,14.81,7.46,20.82,7.24-.9,1.66-6.71,6.08-15.5,7.28-8.61,1.16-21.76,1.56-30-2.5,0,0,1.71,3.95,8.35,7.35-.66.4-16.61,4.37-23.51-1l-.25-.9a87.81,87.81,0,0,0-9.08-19.68l-.34-.49a64.34,64.34,0,0,1,15.93-23.66c12.18-11,38.11-18.48,58.79-24.64,14.18-4.23,26.09-9.4,33.41-16.75.92-.94,3.4-4,5.15-6.17C1186,113.39,1184.44,115.86,1182.47,119.84Z" fill="#fff"/><path d="M1145.7,152.33a82.34,82.34,0,0,0-24.66,5.59c-13.06,5.19-27.43,16.53-27.43,16.53s6.82-13.07,20.54-18.58c21.86-8.79,31.55-3.54,31.55-3.54" fill="#2ab5ff"/><path d="M1199.91,82.5s-1.57,3.49-2.27,4.76c-5.49,9.85-15.82,23.37-27.8,30.09-9.24,5.18-23,8.68-36,11.59-15.31,3.43-36,11.41-49.56,23.38a49.34,49.34,0,0,0-14.34,22,88.13,88.13,0,0,0-109.39-25.56c-4.15-24.5-11.45-48.91-38.57-60.2-11.33-4.72-70.15-27.4-105.52-56.81-12-10-30.87-31.7-30.87-31.7-.63,4.08-4,32.37,7.55,53.76,3.78,7,10.1,15.2,16.52,21.86C799.6,70,789.87,64.28,784.89,59.75c0,7.29,4.09,22.87,14.2,37a77.23,77.23,0,0,0,11.52,12.78c-3.2-.66-7.06-1.65-12.63-3,9.93,27.08,28.16,34,36.94,38.91,1.28,3.92,6,14.35,20.87,21.68a73.58,73.58,0,0,0,19,5.93c2.76,3.94,12,16,25.32,19.15a49.7,49.7,0,0,0,18.39,1.28,88.25,88.25,0,1,0,167.63,16.08c7.48,3.17,19.4,2.34,31.89-3.2,6.68,1.34,19.72-1,28.84-7.23,8.55-5.82,9.45-10.85,10.24-12.47,12.76-6.13,22.38-27.26,22.38-27.26l-5,2.31c10.91-10.46,17.2-34.05,17.85-36.66a53.16,53.16,0,0,1-8.2,6.74c9.92-19.91,13.5-33.7,14.59-38.67C1199.5,89.53,1200.27,83.43,1199.91,82.5ZM1069.45,268.41a86.78,86.78,0,0,1-14.13,16.67c-4.57,4.19-15.85,6.89-26.68-1.25-10.29-5.09-17.79,5-27.42.43-12-5.7-3.55-13.18-12.61-19.32-10.44-7.09-19.06,1.07-26.41-7.79-7.12-8.6,4-16.16-1.52-26.23-7.35-13.38-17.36-4.56-21.29-14.32-2.58-6.41-3.78-19.32,15.9-29.84-4.87-3.47-8.57-4.14-17.47-2.65-.51,0-4.87.94-5.82,1.14a59.26,59.26,0,0,1-22.94-.36c-15.2-2.83-21-10.79-21.74-11.89,11.09-.82,18.93-4.93,23.59-7.23-14.23,1.56-31.35.22-43.45-3.74-8.1-2.66-14-7.26-17.39-11.72a59.71,59.71,0,0,0,27.67-2.74c-11.21-.27-20.34-3.16-28.91-5.88-17.62-5.59-26.14-15-30.22-22.1,8.74,2.87,20.5,3.94,25.58,3.94,9.17,0,13.54-1.25,13.54-1.25-9.32-2.25-14.09-3.71-21.26-7.29-17.09-8.55-22.85-16.83-28.93-24a41.73,41.73,0,0,1-5.95-9c13.32,6.38,29.33,12.53,46.53,14.18-26.7-17.3-52.61-41.65-54-78C805.77,34.53,833.79,61,901.46,88.87c7.41,3.06,12.33,5.52,18.95,8.74,28.88,14,32.46,46.1,37.14,71.28,1.75,9.36,2.72,17.36,8.56,22.36a64.69,64.69,0,0,1-1.56-8.6c-1-9.67-2.1-20.27-2.66-25.6a80.53,80.53,0,0,1,107.56,111.36Zm113-148.57c-7.08,14.33-16.19,25.19-27.13,30.43,0,0,13.91-.08,24.83-9.31-5.69,9.56-8.59,21.37-38,27.38,10.82,2.7,20.28.19,25.85-1.37a59.49,59.49,0,0,1-18.59,14.59c-7.27,3.44-14.74,4.9-25.39,2,7,6.68,14.81,7.46,20.82,7.24-.9,1.66-6.71,6.08-15.5,7.28-8.61,1.16-21.76,1.56-30-2.5,0,0,1.71,3.95,8.35,7.35-.66.4-16.61,4.37-23.51-1l-.25-.9a87.81,87.81,0,0,0-9.08-19.68l-.34-.49a64.34,64.34,0,0,1,15.93-23.66c12.18-11,38.11-18.48,58.79-24.64,14.18-4.23,26.09-9.4,33.41-16.75.92-.94,3.4-4,5.15-6.17C1186,113.39,1184.44,115.86,1182.47,119.84Z" fill="#495965"/><path d="M951.29,250.59c-1.44-1-7.22-4.46-10.36-10.52-3.65-7-3.24-10.61-4.23-13.1-1.15-2.85-9.29,9.58-4.12,18.84C938.22,255.92,953.76,252.36,951.29,250.59Z" fill="#2ab5ff"/><path d="M990.11,286.17c-1.76-.33-8.51-1-13.86-5.14-6.22-4.78-7.27-8.13-9.19-9.95-2.21-2.08-4.8,12.34,3.72,18.49C980.08,296.28,993.12,286.74,990.11,286.17Z" fill="#2ab5ff"/><path d="M1032.6,293.67c-1.64.14-3.47,1.37-8.36,1.31-4.21-.05-7.76-2.3-8.75-2.81-1.68-.88.28,8,7.43,8.35C1028.9,300.86,1034.49,293.5,1032.6,293.67Z" fill="#2ab5ff"/><path d="M964.43,203.62c-4.2-8.68-16.93-8-15.06-6.26,1.09,1,5.55,4.59,7.42,9.95,2.18,6.22,1.36,9.08,1.88,11.24C959.27,221,967.55,210,964.43,203.62Z" fill="#2ab5ff"/><path d="M986.83,238.75c-7.38-8.23-21.18-3.56-18.56-2.19,1.53.8,7.57,3.33,11.33,8.64,4.38,6.16,4.39,9.56,5.65,11.77C986.69,259.51,992.3,244.85,986.83,238.75Z" fill="#2ab5ff"/><path d="M1014.42,260.63c-6.49-3.08-17.6,5.11-15.1,5.7,2.19.51,5.07-.3,11.37,1.85,5.41,1.86,9,6.27,10.06,7.35C1022.54,277.38,1023.19,264.78,1014.42,260.63Z" fill="#2ab5ff"/><path d="M1049.29,266.53c-7.39-1.32-13,9.33-11.33,8.28,3.87-2.36,6.07-4,11-2.84,5.51,1.31,6.9,3.54,7.86,4.3C1058.57,277.62,1056.21,267.77,1049.29,266.53Z" fill="#2ab5ff"/><path d="M514.48,292.1v-98a62.74,62.74,0,0,1,11.33-.49C548.21,195,559,207.94,559,241.17c0,37-11.59,50.4-33.68,51.64A45.21,45.21,0,0,1,514.48,292.1Zm72.62-52.22c0-38.75-17.82-68.06-66.22-68.06-16.6,0-33.66.89-33.66.89V313.88s8.81,1.05,28.92,1C569.71,314.77,587.1,287.1,587.1,239.88Z" fill="#fff"/><rect x="320.09" y="172.57" width="27.26" height="141.72" fill="#fff"/><path d="M272.07,239.86s20.45-6.81,20.45-31.81c0-22.67-14.56-36.45-53.44-36.13-18.52.15-35,1-35,1V313.55s12.68,1.86,35.23,1.86c32.5,0,57.89-10.76,57.89-43.53C297.18,245,272.07,239.86,272.07,239.86Zm-40.76-45.49a67.74,67.74,0,0,1,13.09-.48c14.62.86,20.58,6.18,20.81,17.24.23,11.49-6,18.73-22.94,19.79a64.67,64.67,0,0,1-11,0Zm12.17,98.53c-9.78.09-12.17-.77-12.17-.77V251.6s5.68-.33,12.13-.2c17.49.38,25.87,6.87,25.87,20.43C269.31,284.6,261.52,292.74,243.48,292.9Z" fill="#fff"/><rect x="606.61" y="172.57" width="27.26" height="141.72" fill="#fff"/><path d="M402.37,258v56.34h-27.2V172.94s16.74-1,36.5-1c32.08,0,54.19,11.31,54.19,39.72,0,34.8-32,41.66-32,41.66l41.37,60.87H442.86L406.67,258Zm0-64v43.46a111.37,111.37,0,0,0,13.66-.05c13.44-1.17,21.93-7.77,21.93-22.85,0-13.49-7-20.78-23.85-21.09A100.91,100.91,0,0,0,402.37,193.9Z" fill="#fff"/><polygon points="661.48 172.93 661.48 172.57 698.37 172.57 732.53 172.57 732.53 193.81 688.37 193.81 688.37 230.89 727.8 230.89 728.17 230.89 728.17 252.12 688.37 252.12 688.37 292.91 733.98 292.91 733.98 314.29 700.73 314.29 661.48 314.29 661.48 313.92 661.48 172.93" fill="#fff"/><path d="M824.38,276.48c-.42,21-15.64,39.37-44.44,39.37A93.23,93.23,0,0,1,753,312.11v-24s9.23,5,24.42,5c13.09,0,19.78-6.46,19.78-15.4,0-9.15-3.9-13-19-25.11-16-12.85-24.45-22.69-24.24-41.55.23-20.8,15.23-39.42,45.6-39.42,12.88,0,19.09,2.36,19.09,2.36l-.08,22.5s-6.08-2.91-17.6-2.91c-11.83,0-20.13,5.95-20.13,16.8,0,13.06,11.23,19.62,22.9,28.84C817.68,250.29,824.7,260.18,824.38,276.48Z" fill="#fff"/><path d="M854.06,318.46a13.15,13.15,0,0,1-4.48-2.91,14,14,0,0,1-3.06-4.48,12.86,12.86,0,0,1-1.13-5.39,13,13,0,0,1,1.13-5.43,13.25,13.25,0,0,1,3.09-4.44,14.84,14.84,0,0,1,4.48-2.88,14.41,14.41,0,0,1,5.32-1,14.17,14.17,0,0,1,5.39,1,14,14,0,0,1,4.44,2.88,14.36,14.36,0,0,1,3,4.4,13.61,13.61,0,0,1,1.09,5.43,13.31,13.31,0,0,1-1.89,7.07,14.26,14.26,0,0,1-17.41,5.71Zm-4.37-6.92a10.41,10.41,0,0,0,4.08,4.16,11.44,11.44,0,0,0,11.29,0,10.88,10.88,0,0,0,4.08-4.19,12,12,0,0,0,1.45-5.83,12.4,12.4,0,0,0-.84-4.48,12.05,12.05,0,0,0-2.36-3.68,10.48,10.48,0,0,0-3.61-2.44,11.18,11.18,0,0,0-4.37-.87,11.43,11.43,0,0,0-4.33.84,11,11,0,0,0-3.64,2.44,10.7,10.7,0,0,0-2.41,3.67,12.29,12.29,0,0,0-.84,4.52A11.83,11.83,0,0,0,849.69,311.54Zm6.81,2.08h-2.41V297.78h6.12a6.8,6.8,0,0,1,4.15,1.05,4.09,4.09,0,0,1,1.39,3.43,4.2,4.2,0,0,1-1.09,3.09,5.7,5.7,0,0,1-2.95,1.32l4.48,6.95h-2.74l-4.19-6.88H856.5Zm2.91-8.89a6.74,6.74,0,0,0,2.84-.51,2.08,2.08,0,0,0,1-2.11c0-1.55-1.16-2.33-3.5-2.33H856.5v5Z" fill="#fff"/></svg>