<?xml version="1.0" encoding="UTF-8"?>
<svg width="23px" height="22px" viewBox="0 0 23 22" version="1.1" xmlns="http://www.w3.org/2000/svg" xmlns:xlink="http://www.w3.org/1999/xlink">
    <!-- Generator: Sketch 64 (93537) - https://sketch.com -->
    <title>Mask</title>
    <desc>Created with Sketch.</desc>
    <g id="Page-1" stroke="none" stroke-width="1" fill="none" fill-rule="evenodd">
        <g id="01-copy-39" transform="translate(-972.000000, -1006.000000)" fill="#2BB5FF" fill-rule="nonzero">
            <path d="M973.489569,1012.91706 L983.321387,1017.83857 C983.419705,1017.937 983.518023,1017.937 983.71466,1017.937 C983.911296,1017.937 984.009614,1017.937 984.107932,1017.83857 L993.939751,1012.91706 C994.333023,1012.7202 994.52966,1012.42491 994.52966,1012.03119 C994.52966,1011.63747 994.333023,1011.34218 993.939751,1011.14532 L984.107932,1006.22382 C983.812978,1006.12539 983.518023,1006.12539 983.223069,1006.22382 L973.391251,1011.14532 C973.096296,1011.34218 972.89966,1011.63747 972.89966,1012.03119 C972.89966,1012.42491 973.096296,1012.7202 973.489569,1012.91706 Z M983.71466,1008.19242 L991.383478,1012.03119 L983.71466,1015.86997 L976.045842,1012.03119 L983.71466,1008.19242 Z M994.431342,1021.48048 C994.627978,1021.97263 994.431342,1022.56321 994.038069,1022.76007 L984.206251,1027.68157 C984.009614,1027.78 983.911296,1027.78 983.71466,1027.78 C983.518023,1027.78 983.419705,1027.78 983.321387,1027.68157 L973.489569,1022.76007 C972.997978,1022.56321 972.801342,1021.97263 973.096296,1021.48048 C973.292932,1020.98833 973.882842,1020.79147 974.374432,1021.08676 L983.812978,1025.8114 L993.251523,1021.08676 C993.546478,1020.79147 994.136387,1020.98833 994.431342,1021.48048 Z M994.431342,1016.55898 C994.627978,1017.05113 994.431342,1017.64171 994.038069,1017.83857 L984.206251,1022.76007 C984.009614,1022.8585 983.911296,1022.8585 983.71466,1022.8585 C983.518023,1022.8585 983.419705,1022.8585 983.321387,1022.76007 L973.489569,1017.83857 C972.997978,1017.64171 972.801342,1017.05113 973.096296,1016.55898 C973.292932,1016.06683 973.882842,1015.86997 974.374432,1016.16526 L983.812978,1020.8899 L993.251523,1016.16526 C993.546478,1015.86997 994.136387,1016.06683 994.431342,1016.55898 Z" id="Mask"></path>
        </g>
    </g>
</svg>