<?xml version="1.0" encoding="UTF-8"?>
<svg width="18px" height="22px" viewBox="0 0 18 22" version="1.1" xmlns="http://www.w3.org/2000/svg" xmlns:xlink="http://www.w3.org/1999/xlink">
    <!-- Generator: Sketch 64 (93537) - https://sketch.com -->
    <title>Group 3 Copy 2</title>
    <desc>Created with Sketch.</desc>
    <g id="Page-1" stroke="none" stroke-width="1" fill="none" fill-rule="evenodd">
        <g id="01-copy-39" transform="translate(-387.000000, -1177.000000)" fill="#2BB5FF" fill-rule="nonzero">
            <g id="Group-3-Copy-2" transform="translate(387.643979, 1177.733054)">
                <path d="M13.1411761,12.2025207 C13.1411761,12.7657139 12.7657139,13.1411761 12.2025207,13.1411761 L4.69327718,13.1411761 C4.13008392,13.1411761 3.75462175,12.7657139 3.75462175,12.2025207 C3.75462175,11.6393274 4.13008392,11.2638652 4.69327718,11.2638652 L12.2025207,11.2638652 C12.7657139,11.2638652 13.1411761,11.6393274 13.1411761,12.2025207 Z M13.1411761,15.9571424 C13.1411761,16.5203357 12.7657139,16.8957979 12.2025207,16.8957979 L4.69327718,16.8957979 C4.13008392,16.8957979 3.75462175,16.5203357 3.75462175,15.9571424 C3.75462175,15.3939492 4.13008392,15.018487 4.69327718,15.018487 L12.2025207,15.018487 C12.7657139,15.018487 13.1411761,15.3939492 13.1411761,15.9571424 Z M3.75462175,8.44789893 C3.75462175,7.88470567 4.13008392,7.50924349 4.69327718,7.50924349 L6.57058805,7.50924349 C7.13378132,7.50924349 7.50924349,7.88470567 7.50924349,8.44789893 C7.50924349,9.01109219 7.13378132,9.38655436 6.57058805,9.38655436 L4.69327718,9.38655436 C4.13008392,9.38655436 3.75462175,9.01109219 3.75462175,8.44789893 Z" id="Mask-Copy-17" transform="translate(8.447899, 12.202521) scale(1, -1) translate(-8.447899, -12.202521) "></path>
                <path d="M14.0798315,1.87731087 L13.1411761,1.87731087 C13.1411761,0.844789893 12.2963862,0 11.2638652,0 L5.63193262,0 C4.59941164,0 3.75462175,0.844789893 3.75462175,1.87731087 L2.81596631,1.87731087 C1.22025207,1.87731087 0,3.09756294 0,4.69327718 L0,17.8344533 C0,19.4301675 1.22025207,20.6504196 2.81596631,20.6504196 L14.0798315,20.6504196 C15.6755458,20.6504196 16.8957979,19.4301675 16.8957979,17.8344533 L16.8957979,4.69327718 C16.8957979,3.09756294 15.6755458,1.87731087 14.0798315,1.87731087 Z M5.63193262,1.87731087 L11.2638652,1.87731087 L11.2638652,3.75462175 L5.63193262,3.75462175 L5.63193262,2.81596631 C5.63193262,2.81596631 5.63193262,2.81596631 5.63193262,2.81596631 C5.63193262,2.81596631 5.63193262,2.81596631 5.63193262,2.81596631 L5.63193262,1.87731087 L5.63193262,1.87731087 Z M15.018487,17.8344533 C15.018487,18.3976466 14.6430248,18.7731087 14.0798315,18.7731087 L2.81596631,18.7731087 C2.25277305,18.7731087 1.87731087,18.3976466 1.87731087,17.8344533 L1.87731087,4.69327718 C1.87731087,4.13008392 2.25277305,3.75462175 2.81596631,3.75462175 L3.75462175,3.75462175 C3.75462175,4.78714273 4.59941164,5.63193262 5.63193262,5.63193262 L11.2638652,5.63193262 C12.2963862,5.63193262 13.1411761,4.78714273 13.1411761,3.75462175 L14.0798315,3.75462175 C14.6430248,3.75462175 15.018487,4.13008392 15.018487,4.69327718 L15.018487,17.8344533 Z" id="Mask-Copy-16"></path>
            </g>
        </g>
    </g>
</svg>